<svg class="rich-terminal" viewBox="0 0 1238 635.5999999999999" xmlns="http://www.w3.org/2000/svg">
    <!-- Generated with Rich https://www.textualize.io -->
    <style>

    @font-face {
        font-family: "Fira Code";
        src: local("FiraCode-Regular"),
                url("https://cdnjs.cloudflare.com/ajax/libs/firacode/6.2.0/woff2/FiraCode-Regular.woff2") format("woff2"),
                url("https://cdnjs.cloudflare.com/ajax/libs/firacode/6.2.0/woff/FiraCode-Regular.woff") format("woff");
        font-style: normal;
        font-weight: 400;
    }
    @font-face {
        font-family: "Fira Code";
        src: local("FiraCode-Bold"),
                url("https://cdnjs.cloudflare.com/ajax/libs/firacode/6.2.0/woff2/FiraCode-Bold.woff2") format("woff2"),
                url("https://cdnjs.cloudflare.com/ajax/libs/firacode/6.2.0/woff/FiraCode-Bold.woff") format("woff");
        font-style: bold;
        font-weight: 700;
    }

    .terminal-2333449389-matrix {
        font-family: Fira Code, monospace;
        font-size: 20px;
        line-height: 24.4px;
        font-variant-east-asian: full-width;
    }

    .terminal-2333449389-title {
        font-size: 18px;
        font-weight: bold;
        font-family: arial;
    }

    .terminal-2333449389-r1 { fill: #c5c8c6 }
.terminal-2333449389-r2 { fill: #e0e0e0 }
.terminal-2333449389-r3 { fill: #fea62b }
.terminal-2333449389-r4 { fill: #e0e0e0;font-weight: bold }
.terminal-2333449389-r5 { fill: #ffa62b;font-weight: bold }
.terminal-2333449389-r6 { fill: #495259 }
    </style>

    <defs>
    <clipPath id="terminal-2333449389-clip-terminal">
      <rect x="0" y="0" width="1219.0" height="584.5999999999999" />
    </clipPath>
    <clipPath id="terminal-2333449389-line-0">
    <rect x="0" y="1.5" width="1220" height="24.65"/>
            </clipPath>
<clipPath id="terminal-2333449389-line-1">
    <rect x="0" y="25.9" width="1220" height="24.65"/>
            </clipPath>
<clipPath id="terminal-2333449389-line-2">
    <rect x="0" y="50.3" width="1220" height="24.65"/>
            </clipPath>
<clipPath id="terminal-2333449389-line-3">
    <rect x="0" y="74.7" width="1220" height="24.65"/>
            </clipPath>
<clipPath id="terminal-2333449389-line-4">
    <rect x="0" y="99.1" width="1220" height="24.65"/>
            </clipPath>
<clipPath id="terminal-2333449389-line-5">
    <rect x="0" y="123.5" width="1220" height="24.65"/>
            </clipPath>
<clipPath id="terminal-2333449389-line-6">
    <rect x="0" y="147.9" width="1220" height="24.65"/>
            </clipPath>
<clipPath id="terminal-2333449389-line-7">
    <rect x="0" y="172.3" width="1220" height="24.65"/>
            </clipPath>
<clipPath id="terminal-2333449389-line-8">
    <rect x="0" y="196.7" width="1220" height="24.65"/>
            </clipPath>
<clipPath id="terminal-2333449389-line-9">
    <rect x="0" y="221.1" width="1220" height="24.65"/>
            </clipPath>
<clipPath id="terminal-2333449389-line-10">
    <rect x="0" y="245.5" width="1220" height="24.65"/>
            </clipPath>
<clipPath id="terminal-2333449389-line-11">
    <rect x="0" y="269.9" width="1220" height="24.65"/>
            </clipPath>
<clipPath id="terminal-2333449389-line-12">
    <rect x="0" y="294.3" width="1220" height="24.65"/>
            </clipPath>
<clipPath id="terminal-2333449389-line-13">
    <rect x="0" y="318.7" width="1220" height="24.65"/>
            </clipPath>
<clipPath id="terminal-2333449389-line-14">
    <rect x="0" y="343.1" width="1220" height="24.65"/>
            </clipPath>
<clipPath id="terminal-2333449389-line-15">
    <rect x="0" y="367.5" width="1220" height="24.65"/>
            </clipPath>
<clipPath id="terminal-2333449389-line-16">
    <rect x="0" y="391.9" width="1220" height="24.65"/>
            </clipPath>
<clipPath id="terminal-2333449389-line-17">
    <rect x="0" y="416.3" width="1220" height="24.65"/>
            </clipPath>
<clipPath id="terminal-2333449389-line-18">
    <rect x="0" y="440.7" width="1220" height="24.65"/>
            </clipPath>
<clipPath id="terminal-2333449389-line-19">
    <rect x="0" y="465.1" width="1220" height="24.65"/>
            </clipPath>
<clipPath id="terminal-2333449389-line-20">
    <rect x="0" y="489.5" width="1220" height="24.65"/>
            </clipPath>
<clipPath id="terminal-2333449389-line-21">
    <rect x="0" y="513.9" width="1220" height="24.65"/>
            </clipPath>
<clipPath id="terminal-2333449389-line-22">
    <rect x="0" y="538.3" width="1220" height="24.65"/>
            </clipPath>
    </defs>

    <rect fill="#292929" stroke="rgba(255,255,255,0.35)" stroke-width="1" x="1" y="1" width="1236" height="633.6" rx="8"/><text class="terminal-2333449389-title" fill="#c5c8c6" text-anchor="middle" x="618" y="27">AgmodApp</text>
            <g transform="translate(26,22)">
            <circle cx="0" cy="0" r="7" fill="#ff5f57"/>
            <circle cx="22" cy="0" r="7" fill="#febc2e"/>
            <circle cx="44" cy="0" r="7" fill="#28c840"/>
            </g>
        
    <g transform="translate(9, 41)" clip-path="url(#terminal-2333449389-clip-terminal)">
    <rect fill="#242f38" x="0" y="1.5" width="12.2" height="24.65" shape-rendering="crispEdges"/><rect fill="#242f38" x="12.2" y="1.5" width="12.2" height="24.65" shape-rendering="crispEdges"/><rect fill="#242f38" x="24.4" y="1.5" width="61" height="24.65" shape-rendering="crispEdges"/><rect fill="#242f38" x="85.4" y="1.5" width="12.2" height="24.65" shape-rendering="crispEdges"/><rect fill="#242f38" x="97.6" y="1.5" width="451.4" height="24.65" shape-rendering="crispEdges"/><rect fill="#242f38" x="549" y="1.5" width="97.6" height="24.65" shape-rendering="crispEdges"/><rect fill="#242f38" x="646.6" y="1.5" width="451.4" height="24.65" shape-rendering="crispEdges"/><rect fill="#242f38" x="1098" y="1.5" width="12.2" height="24.65" shape-rendering="crispEdges"/><rect fill="#242f38" x="1110.2" y="1.5" width="0" height="24.65" shape-rendering="crispEdges"/><rect fill="#242f38" x="1110.2" y="1.5" width="109.8" height="24.65" shape-rendering="crispEdges"/><rect fill="#121212" x="0" y="25.9" width="683.2" height="24.65" shape-rendering="crispEdges"/><rect fill="#121212" x="683.2" y="25.9" width="122" height="24.65" shape-rendering="crispEdges"/><rect fill="#121212" x="805.2" y="25.9" width="414.8" height="24.65" shape-rendering="crispEdges"/><rect fill="#121212" x="0" y="50.3" width="12.2" height="24.65" shape-rendering="crispEdges"/><rect fill="#121212" x="12.2" y="50.3" width="12.2" height="24.65" shape-rendering="crispEdges"/><rect fill="#0d0d0d" x="24.4" y="50.3" width="85.4" height="24.65" shape-rendering="crispEdges"/><rect fill="#0d0d0d" x="109.8" y="50.3" width="207.4" height="24.65" shape-rendering="crispEdges"/><rect fill="#121212" x="317.2" y="50.3" width="12.2" height="24.65" shape-rendering="crispEdges"/><rect fill="#121212" x="329.4" y="50.3" width="24.4" height="24.65" shape-rendering="crispEdges"/><rect fill="#121212" x="353.8" y="50.3" width="12.2" height="24.65" shape-rendering="crispEdges"/><rect fill="#1e1e1e" x="366" y="50.3" width="292.8" height="24.65" shape-rendering="crispEdges"/><rect fill="#121212" x="658.8" y="50.3" width="12.2" height="24.65" shape-rendering="crispEdges"/><rect fill="#121212" x="671" y="50.3" width="12.2" height="24.65" shape-rendering="crispEdges"/><rect fill="#121212" x="683.2" y="50.3" width="158.6" height="24.65" shape-rendering="crispEdges"/><rect fill="#121212" x="841.8" y="50.3" width="378.2" height="24.65" shape-rendering="crispEdges"/><rect fill="#121212" x="0" y="74.7" width="12.2" height="24.65" shape-rendering="crispEdges"/><rect fill="#121212" x="12.2" y="74.7" width="12.2" height="24.65" shape-rendering="crispEdges"/><rect fill="#272727" x="24.4" y="74.7" width="292.8" height="24.65" shape-rendering="crispEdges"/><rect fill="#121212" x="317.2" y="74.7" width="12.2" height="24.65" shape-rendering="crispEdges"/><rect fill="#121212" x="329.4" y="74.7" width="24.4" height="24.65" shape-rendering="crispEdges"/><rect fill="#121212" x="353.8" y="74.7" width="12.2" height="24.65" shape-rendering="crispEdges"/><rect fill="#1e1e1e" x="366" y="74.7" width="292.8" height="24.65" shape-rendering="crispEdges"/><rect fill="#121212" x="658.8" y="74.7" width="12.2" height="24.65" shape-rendering="crispEdges"/><rect fill="#121212" x="671" y="74.7" width="12.2" height="24.65" shape-rendering="crispEdges"/><rect fill="#121212" x="683.2" y="74.7" width="158.6" height="24.65" shape-rendering="crispEdges"/><rect fill="#121212" x="841.8" y="74.7" width="378.2" height="24.65" shape-rendering="crispEdges"/><rect fill="#121212" x="0" y="99.1" width="12.2" height="24.65" shape-rendering="crispEdges"/><rect fill="#121212" x="12.2" y="99.1" width="12.2" height="24.65" shape-rendering="crispEdges"/><rect fill="#272727" x="24.4" y="99.1" width="292.8" height="24.65" shape-rendering="crispEdges"/><rect fill="#121212" x="317.2" y="99.1" width="12.2" height="24.65" shape-rendering="crispEdges"/><rect fill="#121212" x="329.4" y="99.1" width="24.4" height="24.65" shape-rendering="crispEdges"/><rect fill="#121212" x="353.8" y="99.1" width="12.2" height="24.65" shape-rendering="crispEdges"/><rect fill="#1e1e1e" x="366" y="99.1" width="292.8" height="24.65" shape-rendering="crispEdges"/><rect fill="#121212" x="658.8" y="99.1" width="12.2" height="24.65" shape-rendering="crispEdges"/><rect fill="#121212" x="671" y="99.1" width="12.2" height="24.65" shape-rendering="crispEdges"/><rect fill="#121212" x="683.2" y="99.1" width="353.8" height="24.65" shape-rendering="crispEdges"/><rect fill="#121212" x="1037" y="99.1" width="183" height="24.65" shape-rendering="crispEdges"/><rect fill="#121212" x="0" y="123.5" width="12.2" height="24.65" shape-rendering="crispEdges"/><rect fill="#121212" x="12.2" y="123.5" width="12.2" height="24.65" shape-rendering="crispEdges"/><rect fill="#272727" x="24.4" y="123.5" width="292.8" height="24.65" shape-rendering="crispEdges"/><rect fill="#121212" x="317.2" y="123.5" width="12.2" height="24.65" shape-rendering="crispEdges"/><rect fill="#121212" x="329.4" y="123.5" width="24.4" height="24.65" shape-rendering="crispEdges"/><rect fill="#121212" x="353.8" y="123.5" width="12.2" height="24.65" shape-rendering="crispEdges"/><rect fill="#1e1e1e" x="366" y="123.5" width="292.8" height="24.65" shape-rendering="crispEdges"/><rect fill="#121212" x="658.8" y="123.5" width="12.2" height="24.65" shape-rendering="crispEdges"/><rect fill="#121212" x="671" y="123.5" width="12.2" height="24.65" shape-rendering="crispEdges"/><rect fill="#121212" x="683.2" y="123.5" width="146.4" height="24.65" shape-rendering="crispEdges"/><rect fill="#121212" x="829.6" y="123.5" width="390.4" height="24.65" shape-rendering="crispEdges"/><rect fill="#121212" x="0" y="147.9" width="12.2" height="24.65" shape-rendering="crispEdges"/><rect fill="#121212" x="12.2" y="147.9" width="12.2" height="24.65" shape-rendering="crispEdges"/><rect fill="#272727" x="24.4" y="147.9" width="292.8" height="24.65" shape-rendering="crispEdges"/><rect fill="#121212" x="317.2" y="147.9" width="12.2" height="24.65" shape-rendering="crispEdges"/><rect fill="#121212" x="329.4" y="147.9" width="24.4" height="24.65" shape-rendering="crispEdges"/><rect fill="#121212" x="353.8" y="147.9" width="12.2" height="24.65" shape-rendering="crispEdges"/><rect fill="#1e1e1e" x="366" y="147.9" width="292.8" height="24.65" shape-rendering="crispEdges"/><rect fill="#121212" x="658.8" y="147.9" width="12.2" height="24.65" shape-rendering="crispEdges"/><rect fill="#121212" x="671" y="147.9" width="12.2" height="24.65" shape-rendering="crispEdges"/><rect fill="#121212" x="683.2" y="147.9" width="0" height="24.65" shape-rendering="crispEdges"/><rect fill="#121212" x="683.2" y="147.9" width="536.8" height="24.65" shape-rendering="crispEdges"/><rect fill="#121212" x="0" y="172.3" width="12.2" height="24.65" shape-rendering="crispEdges"/><rect fill="#121212" x="12.2" y="172.3" width="12.2" height="24.65" shape-rendering="crispEdges"/><rect fill="#272727" x="24.4" y="172.3" width="292.8" height="24.65" shape-rendering="crispEdges"/><rect fill="#121212" x="317.2" y="172.3" width="12.2" height="24.65" shape-rendering="crispEdges"/><rect fill="#121212" x="329.4" y="172.3" width="24.4" height="24.65" shape-rendering="crispEdges"/><rect fill="#121212" x="353.8" y="172.3" width="12.2" height="24.65" shape-rendering="crispEdges"/><rect fill="#1e1e1e" x="366" y="172.3" width="292.8" height="24.65" shape-rendering="crispEdges"/><rect fill="#121212" x="658.8" y="172.3" width="12.2" height="24.65" shape-rendering="crispEdges"/><rect fill="#121212" x="671" y="172.3" width="12.2" height="24.65" shape-rendering="crispEdges"/><rect fill="#121212" x="683.2" y="172.3" width="97.6" height="24.65" shape-rendering="crispEdges"/><rect fill="#121212" x="780.8" y="172.3" width="439.2" height="24.65" shape-rendering="crispEdges"/><rect fill="#121212" x="0" y="196.7" width="12.2" height="24.65" shape-rendering="crispEdges"/><rect fill="#121212" x="12.2" y="196.7" width="12.2" height="24.65" shape-rendering="crispEdges"/><rect fill="#272727" x="24.4" y="196.7" width="292.8" height="24.65" shape-rendering="crispEdges"/><rect fill="#121212" x="317.2" y="196.7" width="12.2" height="24.65" shape-rendering="crispEdges"/><rect fill="#121212" x="329.4" y="196.7" width="24.4" height="24.65" shape-rendering="crispEdges"/><rect fill="#121212" x="353.8" y="196.7" width="12.2" height="24.65" shape-rendering="crispEdges"/><rect fill="#1e1e1e" x="366" y="196.7" width="292.8" height="24.65" shape-rendering="crispEdges"/><rect fill="#121212" x="658.8" y="196.7" width="12.2" height="24.65" shape-rendering="crispEdges"/><rect fill="#121212" x="671" y="196.7" width="12.2" height="24.65" shape-rendering="crispEdges"/><rect fill="#121212" x="683.2" y="196.7" width="73.2" height="24.65" shape-rendering="crispEdges"/><rect fill="#121212" x="756.4" y="196.7" width="463.6" height="24.65" shape-rendering="crispEdges"/><rect fill="#121212" x="0" y="221.1" width="12.2" height="24.65" shape-rendering="crispEdges"/><rect fill="#121212" x="12.2" y="221.1" width="12.2" height="24.65" shape-rendering="crispEdges"/><rect fill="#272727" x="24.4" y="221.1" width="292.8" height="24.65" shape-rendering="crispEdges"/><rect fill="#121212" x="317.2" y="221.1" width="12.2" height="24.65" shape-rendering="crispEdges"/><rect fill="#121212" x="329.4" y="221.1" width="24.4" height="24.65" shape-rendering="crispEdges"/><rect fill="#121212" x="353.8" y="221.1" width="12.2" height="24.65" shape-rendering="crispEdges"/><rect fill="#1e1e1e" x="366" y="221.1" width="292.8" height="24.65" shape-rendering="crispEdges"/><rect fill="#121212" x="658.8" y="221.1" width="12.2" height="24.65" shape-rendering="crispEdges"/><rect fill="#121212" x="671" y="221.1" width="12.2" height="24.65" shape-rendering="crispEdges"/><rect fill="#121212" x="683.2" y="221.1" width="536.8" height="24.65" shape-rendering="crispEdges"/><rect fill="#121212" x="0" y="245.5" width="12.2" height="24.65" shape-rendering="crispEdges"/><rect fill="#121212" x="12.2" y="245.5" width="12.2" height="24.65" shape-rendering="crispEdges"/><rect fill="#272727" x="24.4" y="245.5" width="292.8" height="24.65" shape-rendering="crispEdges"/><rect fill="#121212" x="317.2" y="245.5" width="12.2" height="24.65" shape-rendering="crispEdges"/><rect fill="#121212" x="329.4" y="245.5" width="24.4" height="24.65" shape-rendering="crispEdges"/><rect fill="#121212" x="353.8" y="245.5" width="12.2" height="24.65" shape-rendering="crispEdges"/><rect fill="#1e1e1e" x="366" y="245.5" width="292.8" height="24.65" shape-rendering="crispEdges"/><rect fill="#121212" x="658.8" y="245.5" width="12.2" height="24.65" shape-rendering="crispEdges"/><rect fill="#121212" x="671" y="245.5" width="12.2" height="24.65" shape-rendering="crispEdges"/><rect fill="#121212" x="683.2" y="245.5" width="536.8" height="24.65" shape-rendering="crispEdges"/><rect fill="#121212" x="0" y="269.9" width="12.2" height="24.65" shape-rendering="crispEdges"/><rect fill="#121212" x="12.2" y="269.9" width="12.2" height="24.65" shape-rendering="crispEdges"/><rect fill="#272727" x="24.4" y="269.9" width="292.8" height="24.65" shape-rendering="crispEdges"/><rect fill="#121212" x="317.2" y="269.9" width="12.2" height="24.65" shape-rendering="crispEdges"/><rect fill="#121212" x="329.4" y="269.9" width="24.4" height="24.65" shape-rendering="crispEdges"/><rect fill="#121212" x="353.8" y="269.9" width="12.2" height="24.65" shape-rendering="crispEdges"/><rect fill="#1e1e1e" x="366" y="269.9" width="292.8" height="24.65" shape-rendering="crispEdges"/><rect fill="#121212" x="658.8" y="269.9" width="12.2" height="24.65" shape-rendering="crispEdges"/><rect fill="#121212" x="671" y="269.9" width="12.2" height="24.65" shape-rendering="crispEdges"/><rect fill="#121212" x="683.2" y="269.9" width="536.8" height="24.65" shape-rendering="crispEdges"/><rect fill="#121212" x="0" y="294.3" width="12.2" height="24.65" shape-rendering="crispEdges"/><rect fill="#121212" x="12.2" y="294.3" width="12.2" height="24.65" shape-rendering="crispEdges"/><rect fill="#272727" x="24.4" y="294.3" width="292.8" height="24.65" shape-rendering="crispEdges"/><rect fill="#121212" x="317.2" y="294.3" width="12.2" height="24.65" shape-rendering="crispEdges"/><rect fill="#121212" x="329.4" y="294.3" width="24.4" height="24.65" shape-rendering="crispEdges"/><rect fill="#121212" x="353.8" y="294.3" width="12.2" height="24.65" shape-rendering="crispEdges"/><rect fill="#1e1e1e" x="366" y="294.3" width="292.8" height="24.65" shape-rendering="crispEdges"/><rect fill="#121212" x="658.8" y="294.3" width="12.2" height="24.65" shape-rendering="crispEdges"/><rect fill="#121212" x="671" y="294.3" width="12.2" height="24.65" shape-rendering="crispEdges"/><rect fill="#121212" x="683.2" y="294.3" width="536.8" height="24.65" shape-rendering="crispEdges"/><rect fill="#121212" x="0" y="318.7" width="12.2" height="24.65" shape-rendering="crispEdges"/><rect fill="#121212" x="12.2" y="318.7" width="12.2" height="24.65" shape-rendering="crispEdges"/><rect fill="#272727" x="24.4" y="318.7" width="292.8" height="24.65" shape-rendering="crispEdges"/><rect fill="#121212" x="317.2" y="318.7" width="12.2" height="24.65" shape-rendering="crispEdges"/><rect fill="#121212" x="329.4" y="318.7" width="24.4" height="24.65" shape-rendering="crispEdges"/><rect fill="#121212" x="353.8" y="318.7" width="12.2" height="24.65" shape-rendering="crispEdges"/><rect fill="#1e1e1e" x="366" y="318.7" width="292.8" height="24.65" shape-rendering="crispEdges"/><rect fill="#121212" x="658.8" y="318.7" width="12.2" height="24.65" shape-rendering="crispEdges"/><rect fill="#121212" x="671" y="318.7" width="12.2" height="24.65" shape-rendering="crispEdges"/><rect fill="#121212" x="683.2" y="318.7" width="536.8" height="24.65" shape-rendering="crispEdges"/><rect fill="#121212" x="0" y="343.1" width="12.2" height="24.65" shape-rendering="crispEdges"/><rect fill="#121212" x="12.2" y="343.1" width="12.2" height="24.65" shape-rendering="crispEdges"/><rect fill="#272727" x="24.4" y="343.1" width="292.8" height="24.65" shape-rendering="crispEdges"/><rect fill="#121212" x="317.2" y="343.1" width="12.2" height="24.65" shape-rendering="crispEdges"/><rect fill="#121212" x="329.4" y="343.1" width="24.4" height="24.65" shape-rendering="crispEdges"/><rect fill="#121212" x="353.8" y="343.1" width="12.2" height="24.65" shape-rendering="crispEdges"/><rect fill="#1e1e1e" x="366" y="343.1" width="292.8" height="24.65" shape-rendering="crispEdges"/><rect fill="#121212" x="658.8" y="343.1" width="12.2" height="24.65" shape-rendering="crispEdges"/><rect fill="#121212" x="671" y="343.1" width="12.2" height="24.65" shape-rendering="crispEdges"/><rect fill="#121212" x="683.2" y="343.1" width="536.8" height="24.65" shape-rendering="crispEdges"/><rect fill="#121212" x="0" y="367.5" width="12.2" height="24.65" shape-rendering="crispEdges"/><rect fill="#121212" x="12.2" y="367.5" width="12.2" height="24.65" shape-rendering="crispEdges"/><rect fill="#272727" x="24.4" y="367.5" width="292.8" height="24.65" shape-rendering="crispEdges"/><rect fill="#121212" x="317.2" y="367.5" width="12.2" height="24.65" shape-rendering="crispEdges"/><rect fill="#121212" x="329.4" y="367.5" width="24.4" height="24.65" shape-rendering="crispEdges"/><rect fill="#121212" x="353.8" y="367.5" width="12.2" height="24.65" shape-rendering="crispEdges"/><rect fill="#1e1e1e" x="366" y="367.5" width="292.8" height="24.65" shape-rendering="crispEdges"/><rect fill="#121212" x="658.8" y="367.5" width="12.2" height="24.65" shape-rendering="crispEdges"/><rect fill="#121212" x="671" y="367.5" width="12.2" height="24.65" shape-rendering="crispEdges"/><rect fill="#121212" x="683.2" y="367.5" width="536.8" height="24.65" shape-rendering="crispEdges"/><rect fill="#121212" x="0" y="391.9" width="12.2" height="24.65" shape-rendering="crispEdges"/><rect fill="#121212" x="12.2" y="391.9" width="12.2" height="24.65" shape-rendering="crispEdges"/><rect fill="#272727" x="24.4" y="391.9" width="292.8" height="24.65" shape-rendering="crispEdges"/><rect fill="#121212" x="317.2" y="391.9" width="12.2" height="24.65" shape-rendering="crispEdges"/><rect fill="#121212" x="329.4" y="391.9" width="24.4" height="24.65" shape-rendering="crispEdges"/><rect fill="#121212" x="353.8" y="391.9" width="12.2" height="24.65" shape-rendering="crispEdges"/><rect fill="#1e1e1e" x="366" y="391.9" width="292.8" height="24.65" shape-rendering="crispEdges"/><rect fill="#121212" x="658.8" y="391.9" width="12.2" height="24.65" shape-rendering="crispEdges"/><rect fill="#121212" x="671" y="391.9" width="12.2" height="24.65" shape-rendering="crispEdges"/><rect fill="#121212" x="683.2" y="391.9" width="536.8" height="24.65" shape-rendering="crispEdges"/><rect fill="#121212" x="0" y="416.3" width="12.2" height="24.65" shape-rendering="crispEdges"/><rect fill="#121212" x="12.2" y="416.3" width="12.2" height="24.65" shape-rendering="crispEdges"/><rect fill="#272727" x="24.4" y="416.3" width="292.8" height="24.65" shape-rendering="crispEdges"/><rect fill="#121212" x="317.2" y="416.3" width="12.2" height="24.65" shape-rendering="crispEdges"/><rect fill="#121212" x="329.4" y="416.3" width="24.4" height="24.65" shape-rendering="crispEdges"/><rect fill="#121212" x="353.8" y="416.3" width="12.2" height="24.65" shape-rendering="crispEdges"/><rect fill="#1e1e1e" x="366" y="416.3" width="292.8" height="24.65" shape-rendering="crispEdges"/><rect fill="#121212" x="658.8" y="416.3" width="12.2" height="24.65" shape-rendering="crispEdges"/><rect fill="#121212" x="671" y="416.3" width="12.2" height="24.65" shape-rendering="crispEdges"/><rect fill="#121212" x="683.2" y="416.3" width="536.8" height="24.65" shape-rendering="crispEdges"/><rect fill="#121212" x="0" y="440.7" width="12.2" height="24.65" shape-rendering="crispEdges"/><rect fill="#121212" x="12.2" y="440.7" width="12.2" height="24.65" shape-rendering="crispEdges"/><rect fill="#272727" x="24.4" y="440.7" width="292.8" height="24.65" shape-rendering="crispEdges"/><rect fill="#121212" x="317.2" y="440.7" width="12.2" height="24.65" shape-rendering="crispEdges"/><rect fill="#121212" x="329.4" y="440.7" width="24.4" height="24.65" shape-rendering="crispEdges"/><rect fill="#121212" x="353.8" y="440.7" width="12.2" height="24.65" shape-rendering="crispEdges"/><rect fill="#1e1e1e" x="366" y="440.7" width="292.8" height="24.65" shape-rendering="crispEdges"/><rect fill="#121212" x="658.8" y="440.7" width="12.2" height="24.65" shape-rendering="crispEdges"/><rect fill="#121212" x="671" y="440.7" width="12.2" height="24.65" shape-rendering="crispEdges"/><rect fill="#121212" x="683.2" y="440.7" width="536.8" height="24.65" shape-rendering="crispEdges"/><rect fill="#121212" x="0" y="465.1" width="12.2" height="24.65" shape-rendering="crispEdges"/><rect fill="#121212" x="12.2" y="465.1" width="12.2" height="24.65" shape-rendering="crispEdges"/><rect fill="#272727" x="24.4" y="465.1" width="292.8" height="24.65" shape-rendering="crispEdges"/><rect fill="#121212" x="317.2" y="465.1" width="12.2" height="24.65" shape-rendering="crispEdges"/><rect fill="#121212" x="329.4" y="465.1" width="24.4" height="24.65" shape-rendering="crispEdges"/><rect fill="#121212" x="353.8" y="465.1" width="12.2" height="24.65" shape-rendering="crispEdges"/><rect fill="#1e1e1e" x="366" y="465.1" width="292.8" height="24.65" shape-rendering="crispEdges"/><rect fill="#121212" x="658.8" y="465.1" width="12.2" height="24.65" shape-rendering="crispEdges"/><rect fill="#121212" x="671" y="465.1" width="12.2" height="24.65" shape-rendering="crispEdges"/><rect fill="#121212" x="683.2" y="465.1" width="536.8" height="24.65" shape-rendering="crispEdges"/><rect fill="#121212" x="0" y="489.5" width="12.2" height="24.65" shape-rendering="crispEdges"/><rect fill="#121212" x="12.2" y="489.5" width="12.2" height="24.65" shape-rendering="crispEdges"/><rect fill="#272727" x="24.4" y="489.5" width="292.8" height="24.65" shape-rendering="crispEdges"/><rect fill="#121212" x="317.2" y="489.5" width="12.2" height="24.65" shape-rendering="crispEdges"/><rect fill="#121212" x="329.4" y="489.5" width="24.4" height="24.65" shape-rendering="crispEdges"/><rect fill="#121212" x="353.8" y="489.5" width="12.2" height="24.65" shape-rendering="crispEdges"/><rect fill="#1e1e1e" x="366" y="489.5" width="292.8" height="24.65" shape-rendering="crispEdges"/><rect fill="#121212" x="658.8" y="489.5" width="12.2" height="24.65" shape-rendering="crispEdges"/><rect fill="#121212" x="671" y="489.5" width="12.2" height="24.65" shape-rendering="crispEdges"/><rect fill="#121212" x="683.2" y="489.5" width="536.8" height="24.65" shape-rendering="crispEdges"/><rect fill="#121212" x="0" y="513.9" width="12.2" height="24.65" shape-rendering="crispEdges"/><rect fill="#121212" x="12.2" y="513.9" width="12.2" height="24.65" shape-rendering="crispEdges"/><rect fill="#272727" x="24.4" y="513.9" width="292.8" height="24.65" shape-rendering="crispEdges"/><rect fill="#121212" x="317.2" y="513.9" width="12.2" height="24.65" shape-rendering="crispEdges"/><rect fill="#121212" x="329.4" y="513.9" width="24.4" height="24.65" shape-rendering="crispEdges"/><rect fill="#121212" x="353.8" y="513.9" width="12.2" height="24.65" shape-rendering="crispEdges"/><rect fill="#1e1e1e" x="366" y="513.9" width="292.8" height="24.65" shape-rendering="crispEdges"/><rect fill="#121212" x="658.8" y="513.9" width="12.2" height="24.65" shape-rendering="crispEdges"/><rect fill="#121212" x="671" y="513.9" width="12.2" height="24.65" shape-rendering="crispEdges"/><rect fill="#121212" x="683.2" y="513.9" width="536.8" height="24.65" shape-rendering="crispEdges"/><rect fill="#121212" x="0" y="538.3" width="683.2" height="24.65" shape-rendering="crispEdges"/><rect fill="#121212" x="683.2" y="538.3" width="536.8" height="24.65" shape-rendering="crispEdges"/><rect fill="#242f38" x="0" y="562.7" width="85.4" height="24.65" shape-rendering="crispEdges"/><rect fill="#242f38" x="85.4" y="562.7" width="134.2" height="24.65" shape-rendering="crispEdges"/><rect fill="#242f38" x="219.6" y="562.7" width="36.6" height="24.65" shape-rendering="crispEdges"/><rect fill="#242f38" x="256.2" y="562.7" width="122" height="24.65" shape-rendering="crispEdges"/><rect fill="#242f38" x="378.2" y="562.7" width="61" height="24.65" shape-rendering="crispEdges"/><rect fill="#242f38" x="439.2" y="562.7" width="158.6" height="24.65" shape-rendering="crispEdges"/><rect fill="#242f38" x="597.8" y="562.7" width="36.6" height="24.65" shape-rendering="crispEdges"/><rect fill="#242f38" x="634.4" y="562.7" width="97.6" height="24.65" shape-rendering="crispEdges"/><rect fill="#242f38" x="732" y="562.7" width="36.6" height="24.65" shape-rendering="crispEdges"/><rect fill="#242f38" x="768.6" y="562.7" width="61" height="24.65" shape-rendering="crispEdges"/><rect fill="#242f38" x="829.6" y="562.7" width="244" height="24.65" shape-rendering="crispEdges"/><rect fill="#242f38" x="1073.6" y="562.7" width="12.2" height="24.65" shape-rendering="crispEdges"/><rect fill="#242f38" x="1085.8" y="562.7" width="24.4" height="24.65" shape-rendering="crispEdges"/><rect fill="#242f38" x="1110.2" y="562.7" width="97.6" height="24.65" shape-rendering="crispEdges"/><rect fill="#242f38" x="1207.8" y="562.7" width="12.2" height="24.65" shape-rendering="crispEdges"/>
    <g class="terminal-2333449389-matrix">
    <text class="terminal-2333449389-r2" x="12.2" y="20" textLength="12.2" clip-path="url(#terminal-2333449389-line-0)">⭘</text><text class="terminal-2333449389-r2" x="549" y="20" textLength="97.6" clip-path="url(#terminal-2333449389-line-0)">AgmodApp</text><text class="terminal-2333449389-r1" x="1220" y="20" textLength="12.2" clip-path="url(#terminal-2333449389-line-0)">
</text><text class="terminal-2333449389-r3" x="0" y="44.4" textLength="683.2" clip-path="url(#terminal-2333449389-line-1)">╭─&#160;Sources&#160;────────────────╮╭─&#160;Project&#160;Blocks&#160;─────────╮</text><text class="terminal-2333449389-r2" x="683.2" y="44.4" textLength="122" clip-path="url(#terminal-2333449389-line-1)">Name:&#160;Tool</text><text class="terminal-2333449389-r1" x="1220" y="44.4" textLength="12.2" clip-path="url(#terminal-2333449389-line-1)">
</text><text class="terminal-2333449389-r3" x="0" y="68.8" textLength="12.2" clip-path="url(#terminal-2333449389-line-2)">│</text><text class="terminal-2333449389-r4" x="24.4" y="68.8" textLength="85.4" clip-path="url(#terminal-2333449389-line-2)">tool.md</text><text class="terminal-2333449389-r3" x="329.4" y="68.8" textLength="24.4" clip-path="url(#terminal-2333449389-line-2)">││</text><text class="terminal-2333449389-r3" x="671" y="68.8" textLength="12.2" clip-path="url(#terminal-2333449389-line-2)">│</text><text class="terminal-2333449389-r2" x="683.2" y="68.8" textLength="158.6" clip-path="url(#terminal-2333449389-line-2)">Source:&#160;local</text><text class="terminal-2333449389-r1" x="1220" y="68.8" textLength="12.2" clip-path="url(#terminal-2333449389-line-2)">
</text><text class="terminal-2333449389-r3" x="0" y="93.2" textLength="12.2" clip-path="url(#terminal-2333449389-line-3)">│</text><text class="terminal-2333449389-r3" x="329.4" y="93.2" textLength="24.4" clip-path="url(#terminal-2333449389-line-3)">││</text><text class="terminal-2333449389-r3" x="671" y="93.2" textLength="12.2" clip-path="url(#terminal-2333449389-line-3)">│</text><text class="terminal-2333449389-r2" x="683.2" y="93.2" textLength="158.6" clip-path="url(#terminal-2333449389-line-3)">Path:&#160;tool.md</text><text class="terminal-2333449389-r1" x="1220" y="93.2" textLength="12.2" clip-path="url(#terminal-2333449389-line-3)">
</text><text class="terminal-2333449389-r3" x="0" y="117.6" textLength="12.2" clip-path="url(#terminal-2333449389-line-4)">│</text><text class="terminal-2333449389-r3" x="329.4" y="117.6" textLength="24.4" clip-path="url(#terminal-2333449389-line-4)">││</text><text class="terminal-2333449389-r3" x="671" y="117.6" textLength="12.2" clip-path="url(#terminal-2333449389-line-4)">│</text><text class="terminal-2333449389-r2" x="683.2" y="117.6" textLength="353.8" clip-path="url(#terminal-2333449389-line-4)">Description:&#160;(no&#160;description)</text><text class="terminal-2333449389-r1" x="1220" y="117.6" textLength="12.2" clip-path="url(#terminal-2333449389-line-4)">
</text><text class="terminal-2333449389-r3" x="0" y="142" textLength="12.2" clip-path="url(#terminal-2333449389-line-5)">│</text><text class="terminal-2333449389-r3" x="329.4" y="142" textLength="24.4" clip-path="url(#terminal-2333449389-line-5)">││</text><text class="terminal-2333449389-r3" x="671" y="142" textLength="12.2" clip-path="url(#terminal-2333449389-line-5)">│</text><text class="terminal-2333449389-r2" x="683.2" y="142" textLength="146.4" clip-path="url(#terminal-2333449389-line-5)">Tags:&#160;(none)</text><text class="terminal-2333449389-r1" x="1220" y="142" textLength="12.2" clip-path="url(#terminal-2333449389-line-5)">
</text><text class="terminal-2333449389-r3" x="0" y="166.4" textLength="12.2" clip-path="url(#terminal-2333449389-line-6)">│</text><text class="terminal-2333449389-r3" x="329.4" y="166.4" textLength="24.4" clip-path="url(#terminal-2333449389-line-6)">││</text><text class="terminal-2333449389-r3" x="671" y="166.4" textLength="12.2" clip-path="url(#terminal-2333449389-line-6)">│</text><text class="terminal-2333449389-r1" x="1220" y="166.4" textLength="12.2" clip-path="url(#terminal-2333449389-line-6)">
</text><text class="terminal-2333449389-r3" x="0" y="190.8" textLength="12.2" clip-path="url(#terminal-2333449389-line-7)">│</text><text class="terminal-2333449389-r3" x="329.4" y="190.8" textLength="24.4" clip-path="url(#terminal-2333449389-line-7)">││</text><text class="terminal-2333449389-r3" x="671" y="190.8" textLength="12.2" clip-path="url(#terminal-2333449389-line-7)">│</text><text class="terminal-2333449389-r2" x="683.2" y="190.8" textLength="97.6" clip-path="url(#terminal-2333449389-line-7)">Preview:</text><text class="terminal-2333449389-r1" x="1220" y="190.8" textLength="12.2" clip-path="url(#terminal-2333449389-line-7)">
</text><text class="terminal-2333449389-r3" x="0" y="215.2" textLength="12.2" clip-path="url(#terminal-2333449389-line-8)">│</text><text class="terminal-2333449389-r3" x="329.4" y="215.2" textLength="24.4" clip-path="url(#terminal-2333449389-line-8)">││</text><text class="terminal-2333449389-r3" x="671" y="215.2" textLength="12.2" clip-path="url(#terminal-2333449389-line-8)">│</text><text class="terminal-2333449389-r2" x="683.2" y="215.2" textLength="73.2" clip-path="url(#terminal-2333449389-line-8)">#&#160;Tool</text><text class="terminal-2333449389-r1" x="1220" y="215.2" textLength="12.2" clip-path="url(#terminal-2333449389-line-8)">
</text><text class="terminal-2333449389-r3" x="0" y="239.6" textLength="12.2" clip-path="url(#terminal-2333449389-line-9)">│</text><text class="terminal-2333449389-r3" x="329.4" y="239.6" textLength="24.4" clip-path="url(#terminal-2333449389-line-9)">││</text><text class="terminal-2333449389-r3" x="671" y="239.6" textLength="12.2" clip-path="url(#terminal-2333449389-line-9)">│</text><text class="terminal-2333449389-r1" x="1220" y="239.6" textLength="12.2" clip-path="url(#terminal-2333449389-line-9)">
</text><text class="terminal-2333449389-r3" x="0" y="264" textLength="12.2" clip-path="url(#terminal-2333449389-line-10)">│</text><text class="terminal-2333449389-r3" x="329.4" y="264" textLength="24.4" clip-path="url(#terminal-2333449389-line-10)">││</text><text class="terminal-2333449389-r3" x="671" y="264" textLength="12.2" clip-path="url(#terminal-2333449389-line-10)">│</text><text class="terminal-2333449389-r1" x="1220" y="264" textLength="12.2" clip-path="url(#terminal-2333449389-line-10)">
</text><text class="terminal-2333449389-r3" x="0" y="288.4" textLength="12.2" clip-path="url(#terminal-2333449389-line-11)">│</text><text class="terminal-2333449389-r3" x="329.4" y="288.4" textLength="24.4" clip-path="url(#terminal-2333449389-line-11)">││</text><text class="terminal-2333449389-r3" x="671" y="288.4" textLength="12.2" clip-path="url(#terminal-2333449389-line-11)">│</text><text class="terminal-2333449389-r1" x="1220" y="288.4" textLength="12.2" clip-path="url(#terminal-2333449389-line-11)">
</text><text class="terminal-2333449389-r3" x="0" y="312.8" textLength="12.2" clip-path="url(#terminal-2333449389-line-12)">│</text><text class="terminal-2333449389-r3" x="329.4" y="312.8" textLength="24.4" clip-path="url(#terminal-2333449389-line-12)">││</text><text class="terminal-2333449389-r3" x="671" y="312.8" textLength="12.2" clip-path="url(#terminal-2333449389-line-12)">│</text><text class="terminal-2333449389-r1" x="1220" y="312.8" textLength="12.2" clip-path="url(#terminal-2333449389-line-12)">
</text><text class="terminal-2333449389-r3" x="0" y="337.2" textLength="12.2" clip-path="url(#terminal-2333449389-line-13)">│</text><text class="terminal-2333449389-r3" x="329.4" y="337.2" textLength="24.4" clip-path="url(#terminal-2333449389-line-13)">││</text><text class="terminal-2333449389-r3" x="671" y="337.2" textLength="12.2" clip-path="url(#terminal-2333449389-line-13)">│</text><text class="terminal-2333449389-r1" x="1220" y="337.2" textLength="12.2" clip-path="url(#terminal-2333449389-line-13)">
</text><text class="terminal-2333449389-r3" x="0" y="361.6" textLength="12.2" clip-path="url(#terminal-2333449389-line-14)">│</text><text class="terminal-2333449389-r3" x="329.4" y="361.6" textLength="24.4" clip-path="url(#terminal-2333449389-line-14)">││</text><text class="terminal-2333449389-r3" x="671" y="361.6" textLength="12.2" clip-path="url(#terminal-2333449389-line-14)">│</text><text class="terminal-2333449389-r1" x="1220" y="361.6" textLength="12.2" clip-path="url(#terminal-2333449389-line-14)">
</text><text class="terminal-2333449389-r3" x="0" y="386" textLength="12.2" clip-path="url(#terminal-2333449389-line-15)">│</text><text class="terminal-2333449389-r3" x="329.4" y="386" textLength="24.4" clip-path="url(#terminal-2333449389-line-15)">││</text><text class="terminal-2333449389-r3" x="671" y="386" textLength="12.2" clip-path="url(#terminal-2333449389-line-15)">│</text><text class="terminal-2333449389-r1" x="1220" y="386" textLength="12.2" clip-path="url(#terminal-2333449389-line-15)">
</text><text class="terminal-2333449389-r3" x="0" y="410.4" textLength="12.2" clip-path="url(#terminal-2333449389-line-16)">│</text><text class="terminal-2333449389-r3" x="329.4" y="410.4" textLength="24.4" clip-path="url(#terminal-2333449389-line-16)">││</text><text class="terminal-2333449389-r3" x="671" y="410.4" textLength="12.2" clip-path="url(#terminal-2333449389-line-16)">│</text><text class="terminal-2333449389-r1" x="1220" y="410.4" textLength="12.2" clip-path="url(#terminal-2333449389-line-16)">
</text><text class="terminal-2333449389-r3" x="0" y="434.8" textLength="12.2" clip-path="url(#terminal-2333449389-line-17)">│</text><text class="terminal-2333449389-r3" x="329.4" y="434.8" textLength="24.4" clip-path="url(#terminal-2333449389-line-17)">││</text><text class="terminal-2333449389-r3" x="671" y="434.8" textLength="12.2" clip-path="url(#terminal-2333449389-line-17)">│</text><text class="terminal-2333449389-r1" x="1220" y="434.8" textLength="12.2" clip-path="url(#terminal-2333449389-line-17)">
</text><text class="terminal-2333449389-r3" x="0" y="459.2" textLength="12.2" clip-path="url(#terminal-2333449389-line-18)">│</text><text class="terminal-2333449389-r3" x="329.4" y="459.2" textLength="24.4" clip-path="url(#terminal-2333449389-line-18)">││</text><text class="terminal-2333449389-r3" x="671" y="459.2" textLength="12.2" clip-path="url(#terminal-2333449389-line-18)">│</text><text class="terminal-2333449389-r1" x="1220" y="459.2" textLength="12.2" clip-path="url(#terminal-2333449389-line-18)">
</text><text class="terminal-2333449389-r3" x="0" y="483.6" textLength="12.2" clip-path="url(#terminal-2333449389-line-19)">│</text><text class="terminal-2333449389-r3" x="329.4" y="483.6" textLength="24.4" clip-path="url(#terminal-2333449389-line-19)">││</text><text class="terminal-2333449389-r3" x="671" y="483.6" textLength="12.2" clip-path="url(#terminal-2333449389-line-19)">│</text><text class="terminal-2333449389-r1" x="1220" y="483.6" textLength="12.2" clip-path="url(#terminal-2333449389-line-19)">
</text><text class="terminal-2333449389-r3" x="0" y="508" textLength="12.2" clip-path="url(#terminal-2333449389-line-20)">│</text><text class="terminal-2333449389-r3" x="329.4" y="508" textLength="24.4" clip-path="url(#terminal-2333449389-line-20)">││</text><text class="terminal-2333449389-r3" x="671" y="508" textLength="12.2" clip-path="url(#terminal-2333449389-line-20)">│</text><text class="terminal-2333449389-r1" x="1220" y="508" textLength="12.2" clip-path="url(#terminal-2333449389-line-20)">
</text><text class="terminal-2333449389-r3" x="0" y="532.4" textLength="12.2" clip-path="url(#terminal-2333449389-line-21)">│</text><text class="terminal-2333449389-r3" x="329.4" y="532.4" textLength="24.4" clip-path="url(#terminal-2333449389-line-21)">││</text><text class="terminal-2333449389-r3" x="671" y="532.4" textLength="12.2" clip-path="url(#terminal-2333449389-line-21)">│</text><text class="terminal-2333449389-r1" x="1220" y="532.4" textLength="12.2" clip-path="url(#terminal-2333449389-line-21)">
</text><text class="terminal-2333449389-r3" x="0" y="556.8" textLength="683.2" clip-path="url(#terminal-2333449389-line-22)">╰──────────────────────────╯╰──────────────────────────╯</text><text class="terminal-2333449389-r1" x="1220" y="556.8" textLength="12.2" clip-path="url(#terminal-2333449389-line-22)">
</text><text class="terminal-2333449389-r5" x="0" y="581.2" textLength="85.4" clip-path="url(#terminal-2333449389-line-23)">&#160;space&#160;</text><text class="terminal-2333449389-r2" x="85.4" y="581.2" textLength="134.2" clip-path="url(#terminal-2333449389-line-23)">Add/Remove&#160;</text><text class="terminal-2333449389-r5" x="219.6" y="581.2" textLength="36.6" clip-path="url(#terminal-2333449389-line-23)">&#160;a&#160;</text><text class="terminal-2333449389-r2" x="256.2" y="581.2" textLength="122" clip-path="url(#terminal-2333449389-line-23)">Add&#160;block&#160;</text><text class="terminal-2333449389-r5" x="378.2" y="581.2" textLength="61" clip-path="url(#terminal-2333449389-line-23)">&#160;del&#160;</text><text class="terminal-2333449389-r2" x="439.2" y="581.2" textLength="158.6" clip-path="url(#terminal-2333449389-line-23)">Remove&#160;block&#160;</text><text class="terminal-2333449389-r5" x="597.8" y="581.2" textLength="36.6" clip-path="url(#terminal-2333449389-line-23)">&#160;r&#160;</text><text class="terminal-2333449389-r2" x="634.4" y="581.2" textLength="97.6" clip-path="url(#terminal-2333449389-line-23)">Refresh&#160;</text><text class="terminal-2333449389-r5" x="732" y="581.2" textLength="36.6" clip-path="url(#terminal-2333449389-line-23)">&#160;q&#160;</text><text class="terminal-2333449389-r2" x="768.6" y="581.2" textLength="61" clip-path="url(#terminal-2333449389-line-23)">Quit&#160;</text><text class="terminal-2333449389-r6" x="1073.6" y="581.2" textLength="12.2" clip-path="url(#terminal-2333449389-line-23)">▏</text><text class="terminal-2333449389-r5" x="1085.8" y="581.2" textLength="24.4" clip-path="url(#terminal-2333449389-line-23)">^p</text><text class="terminal-2333449389-r2" x="1110.2" y="581.2" textLength="97.6" clip-path="url(#terminal-2333449389-line-23)">&#160;palette</text>
    </g>
    </g>
</svg>
